<?xml version="1.0" standalone="no"?>
<!DOCTYPE svg PUBLIC "-//W3C//DTD SVG 20010904//EN"
 "http://www.w3.org/TR/2001/REC-SVG-20010904/DTD/svg10.dtd">
<svg version="1.0" xmlns="http://www.w3.org/2000/svg"
 width="1444.000000pt" height="1444.000000pt" viewBox="0 0 1444.000000 1444.000000"
 preserveAspectRatio="xMidYMid meet">

<g transform="translate(0.000000,1444.000000) scale(0.100000,-0.100000)"
fill="#fff" stroke="none">
<path d="M6771 13621 c-74 -82 -81 -96 -57 -115 8 -6 47 -38 86 -70 l72 -60
79 85 79 84 -82 78 c-45 42 -87 77 -94 77 -6 0 -43 -36 -83 -79z"/>
<path d="M7427 13627 c-42 -40 -77 -77 -77 -82 0 -6 36 -46 79 -89 l79 -78 86
73 c47 41 86 77 86 80 0 12 -152 169 -163 169 -7 -1 -47 -33 -90 -73z"/>
<path d="M5876 13649 c-11 -56 -6 -144 10 -192 20 -60 54 -93 139 -132 79 -38
114 -67 169 -142 33 -46 42 -53 72 -53 27 0 45 10 80 42 95 87 138 237 88 305
-40 54 -73 63 -243 63 -146 0 -156 1 -197 25 -23 14 -52 40 -63 59 -35 56 -47
61 -55 25z"/>
<path d="M8445 13627 c-17 -23 -48 -52 -70 -64 -37 -21 -53 -23 -193 -23 -173
0 -210 -9 -242 -62 -22 -37 -26 -100 -9 -157 16 -52 78 -142 118 -168 51 -34
85 -30 118 14 56 75 119 129 196 167 59 29 85 48 105 79 25 37 27 48 27 145 0
62 -4 106 -10 108 -5 1 -24 -16 -40 -39z"/>
<path d="M4937 13395 c-74 -78 -113 -200 -104 -324 15 -216 183 -373 460 -431
31 -6 57 -15 57 -20 0 -4 -15 -35 -34 -69 -54 -96 -115 -303 -95 -325 18 -20
366 91 465 149 78 46 125 143 126 260 2 152 -71 229 -279 296 -50 16 -73 28
-73 39 0 22 46 87 73 102 13 7 80 15 162 18 124 5 146 9 195 32 30 15 71 40
90 56 l34 29 -76 11 c-76 12 -122 27 -288 96 -112 46 -200 60 -286 45 -105
-18 -183 -92 -199 -191 -4 -21 -11 -38 -15 -38 -12 0 -86 80 -117 124 -30 45
-43 80 -52 136 l-6 45 -38 -40z"/>
<path d="M9397 13423 c-4 -3 -7 -20 -7 -37 0 -47 -51 -145 -108 -205 -50 -53
-72 -59 -72 -18 -1 33 -33 98 -66 131 -93 93 -266 94 -465 2 -102 -47 -158
-65 -245 -77 -73 -11 -74 -12 -57 -31 9 -10 51 -35 92 -56 74 -37 77 -37 214
-40 l138 -4 45 -42 c30 -29 44 -51 44 -69 0 -23 -7 -27 -57 -42 -218 -63 -304
-158 -290 -318 9 -108 49 -192 112 -236 71 -48 462 -177 481 -158 8 8 -23 154
-45 215 -10 27 -34 79 -54 116 -19 36 -32 68 -28 70 3 2 44 13 89 25 188 48
323 143 384 270 28 57 33 79 36 162 3 71 0 112 -13 154 -24 85 -108 208 -128
188z"/>
<path d="M7475 13230 c-13 -5 -8 -10 25 -25 49 -22 121 -99 169 -179 19 -32
58 -115 86 -185 83 -204 119 -244 275 -301 98 -35 338 -93 357 -86 19 8 16 36
-13 123 -36 106 -31 182 19 287 20 42 32 76 28 76 -5 0 -30 -10 -57 -22 -37
-17 -69 -22 -129 -22 -99 -1 -143 20 -274 129 -135 112 -216 159 -321 186 -67
17 -145 26 -165 19z"/>
<path d="M6735 13211 c-123 -35 -214 -89 -338 -201 -57 -51 -142 -100 -194
-111 -60 -14 -161 -1 -215 27 -17 9 -32 13 -35 11 -2 -3 9 -31 25 -63 37 -74
43 -102 43 -181 0 -44 -8 -88 -28 -143 -21 -59 -25 -82 -16 -91 20 -20 343 61
444 112 92 46 125 91 203 279 87 210 156 308 251 355 l50 25 -65 -1 c-36 0
-92 -8 -125 -18z"/>
<path d="M4365 13170 c-2 -4 9 -25 25 -47 16 -22 36 -66 45 -99 15 -58 21
-175 9 -187 -4 -4 -19 2 -33 12 -80 54 -187 55 -271 1 -83 -53 -130 -125 -210
-319 -50 -122 -88 -188 -129 -225 -33 -30 -26 -39 28 -33 89 11 175 58 264
148 45 44 89 85 98 90 42 22 149 2 149 -27 0 -8 -13 -37 -28 -66 -100 -185
-95 -313 14 -414 89 -84 195 -112 295 -79 109 36 409 197 409 220 0 25 -186
126 -295 161 -38 12 -71 26 -73 32 -1 5 11 30 28 55 39 58 83 155 105 232 25
85 17 212 -19 290 -66 145 -203 243 -359 258 -26 2 -49 1 -52 -3z"/>
<path d="M9933 13169 c-133 -16 -262 -108 -322 -231 -82 -166 -56 -336 85
-565 l25 -42 -71 -21 c-83 -25 -232 -99 -281 -139 l-34 -28 70 -45 c150 -97
358 -188 429 -188 68 0 149 35 210 91 63 58 88 111 88 191 0 68 -12 107 -63
210 -22 43 -39 81 -39 86 0 28 111 42 153 21 12 -7 56 -47 97 -89 84 -86 169
-134 258 -146 28 -3 52 -4 52 -1 0 3 -22 35 -48 70 -33 42 -66 107 -102 196
-100 251 -197 350 -341 351 -44 0 -70 -7 -113 -29 -54 -29 -55 -29 -62 -9 -7
23 1 109 18 181 5 27 25 68 44 92 20 27 28 45 21 47 -7 2 -40 1 -74 -3z"/>
<path d="M7147 13036 c-43 -78 -106 -166 -118 -166 -5 0 -34 14 -64 31 -30 17
-58 28 -63 25 -6 -3 -4 -32 4 -68 22 -102 20 -111 -33 -158 -26 -23 -78 -60
-115 -83 -74 -46 -85 -63 -35 -53 67 13 673 18 816 7 80 -6 146 -9 148 -7 3 2
-33 29 -79 59 -46 30 -100 70 -122 88 l-38 34 16 86 c9 47 16 89 16 92 0 14
-24 6 -72 -23 -26 -16 -54 -30 -62 -30 -14 0 -102 128 -132 193 -10 20 -21 37
-25 37 -4 0 -23 -29 -42 -64z"/>
<path d="M10763 12643 c-107 -101 -124 -168 -77 -297 24 -66 26 -79 20 -183
l-5 -112 27 -22 c24 -19 37 -21 109 -17 148 8 243 77 243 178 0 56 -16 79
-137 196 -110 108 -135 162 -114 254 5 25 7 48 2 53 -4 4 -35 -19 -68 -50z"/>
<path d="M3546 12626 c10 -99 -3 -124 -132 -258 -62 -64 -116 -128 -120 -143
-9 -36 1 -90 23 -119 10 -14 45 -40 78 -58 56 -31 67 -33 152 -33 130 0 130 0
118 155 -7 79 -5 91 25 179 34 101 35 133 0 201 -19 37 -121 140 -140 140 -7
0 -8 -20 -4 -64z"/>
<path d="M9301 12605 c-73 -36 -111 -59 -108 -67 32 -81 76 -197 81 -212 3
-10 12 -16 19 -13 220 97 225 99 220 117 -15 56 -80 224 -89 226 -5 2 -60 -21
-123 -51z"/>
<path d="M4899 12613 c-24 -59 -69 -195 -69 -207 0 -11 185 -95 219 -99 8 -1
29 38 57 108 24 61 44 114 44 118 0 10 -205 107 -226 107 -8 0 -19 -12 -25
-27z"/>
<path d="M6785 12375 c-750 -64 -1421 -264 -2060 -613 -205 -112 -450 -270
-630 -407 -44 -33 -89 -67 -101 -75 -47 -32 -215 -179 -348 -304 -469 -442
-862 -984 -1138 -1571 -67 -142 -160 -359 -173 -405 -4 -14 -17 -52 -30 -85
-13 -33 -41 -118 -63 -190 -372 -1195 -308 -2493 179 -3643 424 -999 1150
-1844 2074 -2414 612 -378 1303 -624 2015 -717 483 -63 1057 -54 1525 24 1037
173 2002 666 2762 1411 503 494 885 1058 1165 1719 31 72 59 141 63 155 4 14
22 63 40 110 188 491 304 1163 305 1760 1 925 -213 1763 -657 2577 -317 583
-837 1193 -1348 1583 -40 30 -88 67 -106 83 -19 15 -50 38 -69 50 -56 37 -145
100 -150 106 -3 4 -49 33 -103 66 -397 241 -741 405 -1097 521 -58 19 -120 41
-138 49 -18 8 -40 15 -50 15 -9 0 -55 12 -102 26 -47 14 -132 36 -190 49 -58
12 -125 27 -150 34 -97 24 -352 61 -555 82 -156 16 -705 19 -870 4z m925 -139
c741 -85 1386 -297 2007 -660 494 -288 919 -645 1316 -1105 250 -288 524 -713
706 -1093 433 -903 594 -1923 460 -2918 -207 -1543 -1101 -2910 -2424 -3707
-255 -153 -483 -265 -770 -378 -576 -227 -1184 -340 -1820 -339 -543 1 -1010
73 -1520 235 -1067 341 -1986 1025 -2631 1959 -149 215 -238 366 -354 597
-318 636 -489 1264 -541 1988 -14 203 -6 642 15 850 84 801 334 1533 757 2216
285 460 704 931 1134 1276 95 76 369 275 391 284 5 2 43 26 84 52 137 88 243
148 445 248 571 284 1162 447 1840 508 152 14 746 6 905 -13z"/>
<path d="M6955 11781 c5 -102 4 -155 -4 -169 -25 -47 -158 -55 -193 -12 -10
12 -18 37 -18 56 0 30 -3 34 -25 34 -22 0 -25 -4 -25 -32 0 -44 29 -100 60
-115 35 -18 142 -16 190 3 64 26 74 54 66 198 -10 166 -14 186 -38 186 -20 0
-20 -4 -13 -149z"/>
<path d="M7586 11909 c-3 -8 -12 -79 -21 -159 -8 -80 -18 -159 -21 -177 -4
-28 -1 -33 18 -38 18 -4 278 -35 294 -35 2 0 4 9 4 20 0 23 -7 25 -152 41
l-108 12 0 37 c0 21 3 52 6 69 l7 32 72 -6 c52 -5 75 -4 80 5 13 21 -11 32
-79 37 l-66 6 0 46 c0 73 0 73 131 58 62 -8 117 -12 122 -10 4 2 7 12 7 22 0
15 -17 19 -122 30 -68 7 -133 15 -145 18 -14 3 -24 0 -27 -8z"/>
<path d="M8435 11758 c-26 -67 -103 -344 -97 -349 9 -9 270 -89 288 -89 20 0
17 38 -3 44 -71 20 -229 69 -231 71 -2 2 4 31 14 64 19 68 21 69 98 46 64 -19
76 -19 76 3 0 14 -15 23 -62 37 -35 10 -66 21 -70 24 -8 7 10 79 25 98 6 8 16
9 34 2 14 -5 66 -21 116 -35 71 -20 92 -22 98 -12 10 16 -5 34 -34 41 -12 2
-70 19 -128 36 -122 36 -118 35 -124 19z"/>
<path d="M5735 11708 c-4 -13 -26 -152 -45 -287 -6 -41 -13 -85 -16 -98 -6
-22 -4 -24 17 -21 20 2 26 11 34 55 6 29 15 56 20 61 6 4 52 21 103 37 l92 29
43 -42 c31 -30 49 -41 61 -36 9 3 16 10 14 15 -2 4 -65 74 -141 154 -132 138
-171 166 -182 133z m110 -126 c27 -30 49 -57 48 -61 -2 -8 -136 -50 -144 -45
-4 2 -3 21 1 41 4 21 11 59 15 86 7 55 10 55 80 -21z"/>
<path d="M9198 11484 c-11 -11 -10 -412 2 -419 12 -7 339 235 340 251 0 23
-32 23 -64 1 -17 -12 -75 -55 -128 -96 -53 -40 -100 -73 -105 -72 -4 1 -8 76
-8 168 0 143 -2 168 -15 171 -9 1 -19 0 -22 -4z"/>
<path d="M5114 11468 c-16 -7 -26 -31 -44 -104 -12 -52 -26 -96 -29 -98 -3 -2
-46 12 -96 30 -73 28 -94 32 -114 24 -13 -6 -20 -14 -17 -18 4 -4 56 -25 114
-47 l107 -40 45 -82 c29 -53 51 -83 62 -83 30 0 28 15 -12 91 -22 41 -39 84
-40 97 0 13 11 69 25 124 14 55 25 104 23 108 -2 4 -12 3 -24 -2z"/>
<path d="M6935 11313 c-183 -11 -453 -48 -643 -88 -122 -26 -391 -100 -467
-128 -22 -9 -74 -28 -115 -43 -166 -60 -371 -152 -516 -231 -193 -106 -207
-115 -329 -196 -351 -234 -611 -460 -874 -762 -510 -584 -842 -1278 -981
-2050 -25 -141 -25 -155 0 -155 11 0 20 3 20 8 0 74 98 511 154 682 106 329
260 661 444 955 419 670 1023 1212 1734 1555 988 476 2125 547 3163 197 776
-262 1437 -728 1953 -1375 430 -539 729 -1209 844 -1889 19 -112 25 -133 40
-133 24 0 23 30 -7 193 -117 635 -378 1232 -768 1755 -145 194 -230 294 -395
459 -728 734 -1686 1171 -2722 1243 -132 9 -412 11 -535 3z"/>
<path d="M6934 11074 c-11 -5 -10 -28 2 -173 l6 -64 62 5 c93 8 136 45 136
118 0 77 -50 120 -140 119 -30 0 -60 -3 -66 -5z m131 -49 c19 -18 25 -35 25
-66 0 -55 -22 -79 -70 -79 l-38 0 -4 78 c-3 42 -3 80 -1 85 9 17 65 6 88 -18z"/>
<path d="M6785 11055 c-49 -8 -91 -14 -92 -14 -2 -1 -3 -8 -3 -16 0 -12 10
-15 42 -13 l42 3 15 -97 c13 -93 15 -98 38 -98 26 0 26 -11 2 129 -5 35 -7 67
-2 72 4 4 22 9 38 11 18 2 30 9 30 17 0 20 -8 20 -110 6z"/>
<path d="M7390 11056 c0 -8 10 -16 23 -18 24 -3 24 -3 17 -133 -3 -54 -2 -60
17 -63 23 -3 24 2 39 161 l6 67 -51 0 c-38 0 -51 -4 -51 -14z"/>
<path d="M7605 11035 c-25 -24 -34 -77 -17 -101 14 -21 55 -36 82 -30 24 4 27
2 23 -15 -8 -28 -38 -41 -78 -33 -27 5 -35 3 -35 -9 0 -15 28 -27 67 -27 31 0
67 18 81 41 21 33 32 115 21 147 -19 54 -102 70 -144 27z m86 -15 c26 -15 26
-66 -1 -80 -47 -25 -85 20 -56 65 18 28 28 30 57 15z"/>
<path d="M6533 11016 c-40 -18 -56 -47 -44 -79 11 -28 31 -37 105 -46 59 -7
83 -33 52 -57 -26 -18 -70 -18 -86 1 -14 17 -46 20 -55 6 -3 -5 7 -19 22 -31
41 -32 127 -24 160 14 29 34 29 41 -1 71 -15 15 -40 26 -72 30 -58 7 -78 16
-82 37 -2 10 9 20 29 27 26 9 37 8 55 -4 29 -19 54 -19 54 -1 0 37 -83 56
-137 32z"/>
<path d="M7805 10994 c-26 -28 -32 -63 -15 -94 11 -21 64 -42 85 -34 20 8 20
-20 0 -36 -9 -8 -30 -11 -54 -7 -45 6 -56 0 -40 -20 15 -18 99 -17 126 2 24
17 53 93 53 141 0 70 -105 102 -155 48z m89 -10 c11 -4 16 -19 16 -44 0 -30
-4 -39 -22 -43 -49 -13 -78 41 -42 77 17 18 24 19 48 10z"/>
<path d="M6330 10971 c-44 -12 -64 -22 -62 -32 8 -44 68 -209 76 -209 24 0
166 43 166 51 0 18 -22 19 -72 4 -67 -20 -64 -20 -77 17 -13 37 -7 44 51 53
40 7 56 21 41 36 -5 5 -31 3 -61 -5 -49 -14 -53 -13 -63 6 -17 32 -4 45 55 59
34 7 56 17 56 26 0 17 -29 15 -110 -6z"/>
<path d="M8005 10981 c-7 -13 20 -27 68 -36 20 -4 40 -11 43 -16 3 -5 -12 -23
-32 -41 -44 -38 -94 -105 -94 -125 0 -30 39 -12 63 30 26 43 99 117 116 117
10 0 24 30 17 37 -5 6 -147 43 -163 43 -6 0 -14 -4 -18 -9z"/>
<path d="M9913 10858 c-101 -50 -183 -96 -183 -103 0 -24 28 -24 77 0 55 27
51 29 161 -58 51 -40 62 -54 58 -71 -19 -68 -18 -94 2 -105 24 -13 17 -34 67
217 29 144 34 186 24 198 -6 8 -14 14 -18 13 -3 0 -88 -41 -188 -91z m156 0
c-1 -43 -25 -142 -36 -145 -11 -4 -113 74 -113 88 0 8 125 77 143 79 4 0 7
-10 6 -22z"/>
<path d="M4244 10926 c-5 -13 71 -404 81 -414 2 -3 12 1 21 8 15 13 15 35 -2
105 -4 17 12 34 75 83 44 34 87 62 96 62 9 0 33 -9 55 -20 39 -20 70 -18 70 4
0 13 -348 186 -374 186 -9 0 -19 -6 -22 -14z m206 -131 c-1 -11 -90 -82 -110
-87 -8 -2 -18 24 -29 80 -9 45 -15 84 -13 87 7 7 152 -69 152 -80z"/>
<path d="M3677 10423 c-14 -13 -5 -23 93 -109 55 -49 100 -93 100 -98 0 -5
-80 -7 -187 -5 -127 3 -187 1 -190 -7 -2 -6 49 -57 114 -115 167 -148 162
-145 179 -127 14 13 5 24 -73 94 -114 103 -113 102 -113 108 0 3 86 6 190 6
146 0 190 3 189 13 0 6 -37 44 -81 82 -90 78 -87 75 -146 128 -41 36 -61 44
-75 30z"/>
<path d="M10530 10310 c-74 -66 -136 -124 -138 -129 -1 -4 4 -13 12 -20 12
-10 28 -1 87 51 40 35 88 76 107 92 l35 30 -7 -65 c-4 -35 -13 -109 -21 -163
-25 -168 -20 -183 45 -123 19 17 78 70 130 116 91 79 113 113 80 118 -8 2 -58
-35 -110 -81 -114 -101 -110 -106 -81 115 25 179 25 179 9 179 -7 0 -74 -54
-148 -120z"/>
<path d="M7085 9618 c-45 -124 -46 -170 -9 -234 15 -25 44 -59 65 -76 25 -20
36 -35 30 -41 -20 -20 -105 34 -131 82 -6 13 -14 20 -17 17 -15 -15 57 -96
104 -117 18 -7 35 -20 38 -27 10 -26 -29 -25 -79 3 -28 16 -45 22 -39 13 13
-16 57 -39 111 -58 75 -28 11 -41 -74 -15 -66 20 -68 18 -9 -8 30 -14 75 -24
110 -25 139 -6 237 -36 288 -88 l29 -28 -7 42 c-3 23 -12 53 -19 67 -16 30
-80 80 -157 122 -67 37 -89 53 -150 114 -61 60 -83 119 -77 204 5 62 3 80 -7
53z m389 -534 c3 -8 2 -12 -4 -9 -6 3 -10 10 -10 16 0 14 7 11 14 -7z"/>
<path d="M6540 9333 c18 -50 34 -77 78 -136 36 -47 48 -57 65 -52 14 4 18 3 9
-3 -26 -18 65 -74 168 -102 23 -6 40 -17 40 -25 0 -8 -3 -15 -7 -15 -20 0
-120 19 -137 26 -13 5 -17 4 -12 -4 5 -8 2 -10 -8 -6 -9 3 -16 9 -16 13 0 3
-13 12 -29 19 -41 18 -99 66 -128 104 -12 18 -23 27 -23 21 0 -5 8 -19 18 -31
9 -11 29 -36 43 -54 30 -38 150 -104 174 -95 8 4 15 2 15 -4 0 -6 8 -9 18 -8
26 4 92 -11 92 -21 0 -5 -8 -11 -17 -14 -29 -8 -112 -10 -119 -3 -4 4 -19 7
-33 7 -29 0 -125 42 -135 59 -4 6 -12 11 -18 11 -18 0 23 -34 76 -64 57 -32
120 -47 204 -50 92 -4 102 -25 15 -33 -26 -3 -55 -7 -63 -10 -8 -4 -19 -5 -25
-3 -5 1 -37 4 -70 6 l-60 3 45 -16 c30 -11 82 -16 158 -17 100 -1 115 -3 124
-20 6 -10 7 -16 2 -13 -5 3 -43 -3 -84 -13 -41 -10 -68 -19 -60 -20 31 -3 115
2 125 8 5 3 16 7 25 8 8 2 24 4 34 6 55 9 6 -39 -69 -69 -30 -11 -30 -11 -4
-12 14 -1 47 6 73 15 62 21 79 7 39 -31 l-28 -27 35 7 c19 4 61 26 93 48 53
38 62 41 118 40 58 -2 63 0 94 33 71 75 85 149 40 208 -15 20 -32 36 -37 36
-5 0 -16 7 -25 15 -11 11 -34 16 -77 15 -33 0 -76 3 -93 6 -18 3 -33 2 -33 -2
0 -12 -218 1 -284 17 -69 16 -110 34 -167 73 -54 36 -123 115 -144 164 -17 39
-28 43 -15 5z m307 -479 c-3 -3 -12 -4 -19 -1 -8 3 -5 6 6 6 11 1 17 -2 13 -5z
m40 0 c-3 -3 -12 -4 -19 -1 -8 3 -5 6 6 6 11 1 17 -2 13 -5z m280 -40 c-3 -3
-12 -4 -19 -1 -8 3 -5 6 6 6 11 1 17 -2 13 -5z m158 -4 c-3 -5 -30 -9 -58 -8
l-52 1 50 7 c28 4 54 8 58 8 5 1 5 -2 2 -8z m-140 -31 c-4 -5 -13 -9 -22 -9
-13 0 -13 3 -3 15 13 15 35 11 25 -6z"/>
<path d="M7698 9183 c7 -3 16 -2 19 1 4 3 -2 6 -13 5 -11 0 -14 -3 -6 -6z"/>
<path d="M7645 9170 c-3 -6 1 -7 9 -4 18 7 21 14 7 14 -6 0 -13 -4 -16 -10z"/>
<path d="M7758 9161 c48 -31 50 -48 11 -82 l-34 -30 42 26 c24 14 51 25 60 25
16 1 16 2 -2 12 -11 6 -29 21 -40 33 -11 12 -31 25 -45 29 -21 6 -19 4 8 -13z"/>
<path d="M7615 9151 c-3 -5 -1 -12 5 -16 5 -3 10 1 10 9 0 18 -6 21 -15 7z"/>
<path d="M7585 9070 c-9 -28 -15 -54 -12 -57 3 -3 13 19 21 48 21 68 13 76 -9
9z"/>
<path d="M7726 9009 c-3 -17 -6 -65 -6 -106 0 -127 -42 -245 -101 -285 -13 -9
-33 -24 -44 -35 -51 -47 -129 -63 -440 -89 -87 -7 -162 -28 -195 -54 l-25 -20
34 10 34 9 -19 -22 c-47 -53 -49 -60 -8 -31 23 16 40 32 37 37 -2 4 5 7 17 7
12 0 33 6 48 14 40 20 132 34 267 42 120 7 213 28 265 61 39 24 109 104 127
143 12 27 16 73 18 193 1 86 1 157 0 157 -2 0 -5 -14 -9 -31z m-701 -559 c-3
-5 -14 -10 -23 -10 -15 0 -15 2 -2 10 20 13 33 13 25 0z"/>
<path d="M6540 8568 c0 -18 2 -20 10 -8 7 12 16 13 55 2 70 -19 77 -13 10 8
-75 25 -75 25 -75 -2z"/>
<path d="M6688 8543 c7 -3 16 -2 19 1 4 3 -2 6 -13 5 -11 0 -14 -3 -6 -6z"/>
<path d="M6763 8533 c9 -2 23 -2 30 0 6 3 -1 5 -18 5 -16 0 -22 -2 -12 -5z"/>
<path d="M6600 8484 c0 -8 6 -11 15 -8 8 4 15 9 15 13 0 4 -7 8 -15 8 -8 0
-15 -6 -15 -13z"/>
<path d="M6626 8371 c-10 -11 -15 -25 -11 -30 11 -19 23 -12 27 19 5 36 6 35
-16 11z"/>
<path d="M6807 8316 c-37 -43 -43 -55 -31 -60 21 -8 24 -8 24 5 0 6 14 31 30
56 17 25 29 47 27 49 -2 2 -24 -21 -50 -50z"/>
<path d="M6727 8322 c-22 -24 -21 -34 3 -50 22 -13 27 -3 8 16 -9 9 -7 16 7
32 10 11 14 20 8 20 -5 0 -17 -8 -26 -18z"/>
<path d="M6400 7500 c-68 -14 -152 -41 -179 -59 l-24 -15 24 -8 c19 -6 18 -7
-8 -3 -21 3 -36 -1 -45 -12 -11 -14 -10 -15 11 -8 17 5 21 4 16 -5 -4 -6 -17
-9 -28 -6 -43 11 -136 -128 -164 -244 -17 -74 -22 -270 -9 -345 9 -48 10 -49
17 -20 7 24 8 21 4 -15 -2 -25 2 -55 10 -70 7 -14 21 -45 31 -70 23 -53 104
-137 159 -165 22 -11 42 -23 45 -26 5 -7 31 -15 70 -23 14 -3 43 -10 66 -15
48 -12 187 -16 263 -7 113 13 214 55 283 119 45 41 98 122 98 150 0 8 6 27 14
43 7 16 16 53 19 81 l6 53 -154 -1 -155 0 -6 -27 c-13 -59 -37 -111 -63 -135
-51 -48 -188 -60 -261 -22 -44 23 -87 88 -101 153 -18 78 -19 281 -2 307 7 11
13 27 13 36 0 26 80 105 119 118 83 27 190 4 232 -50 15 -20 25 -26 30 -18 4
7 7 2 7 -12 1 -45 15 -119 23 -119 4 0 10 10 12 23 l4 22 2 -23 c1 -23 1 -23
151 -21 l149 1 -6 46 c-3 26 -11 58 -16 72 -6 14 -11 32 -12 40 -3 26 -44 98
-75 134 -37 41 -128 104 -173 118 -115 35 -295 48 -397 28z m133 -7 c-7 -2
-19 -2 -25 0 -7 3 -2 5 12 5 14 0 19 -2 13 -5z m77 -13 c0 -5 -7 -7 -15 -4 -8
4 -15 8 -15 10 0 2 7 4 15 4 8 0 15 -4 15 -10z m80 0 c12 -8 11 -10 -7 -10
-13 0 -23 5 -23 10 0 13 11 13 30 0z m-252 -7 c-10 -2 -28 -2 -40 0 -13 2 -5
4 17 4 22 1 32 -1 23 -4z m110 -10 c-10 -2 -26 -2 -35 0 -10 3 -2 5 17 5 19 0
27 -2 18 -5z m327 -53 c17 -11 25 -20 18 -20 -6 0 -15 5 -18 10 -3 6 -15 10
-26 10 -10 0 -19 5 -19 10 0 15 11 12 45 -10z m-620 -20 c-3 -5 -14 -10 -23
-9 -14 0 -13 2 3 9 27 11 27 11 20 0z m612 -6 c-3 -3 -12 -4 -19 -1 -8 3 -5 6
6 6 11 1 17 -2 13 -5z m-717 -44 c0 -5 -5 -10 -11 -10 -5 0 -7 5 -4 10 3 6 8
10 11 10 2 0 4 -4 4 -10z m805 1 c3 -5 1 -12 -4 -15 -5 -3 -11 1 -15 9 -6 16
9 21 19 6z m-38 -33 c-3 -7 -5 -2 -5 12 0 14 2 19 5 13 2 -7 2 -19 0 -25z m60
0 c-3 -7 -5 -2 -5 12 0 14 2 19 5 13 2 -7 2 -19 0 -25z m-797 12 c0 -5 -4 -10
-10 -10 -5 0 -10 5 -10 10 0 6 5 10 10 10 6 0 10 -4 10 -10z m320 -30 c0 -5
-10 -10 -22 -9 -22 0 -22 1 -3 9 11 5 21 9 23 9 1 1 2 -3 2 -9z m125 0 c3 -5
-1 -10 -9 -10 -9 0 -16 5 -16 10 0 6 4 10 9 10 6 0 13 -4 16 -10z m109 -6 c9
-23 7 -62 -2 -68 -5 -3 -6 8 -4 25 2 16 -1 36 -8 44 -7 9 -8 15 -2 15 5 0 13
-7 16 -16z m-644 -20 c0 -14 -4 -23 -9 -20 -5 3 -7 15 -4 26 7 28 13 25 13 -6z
m473 19 c-7 -2 -21 -2 -30 0 -10 3 -4 5 12 5 17 0 24 -2 18 -5z m142 -23 c8
-13 -5 -13 -25 0 -13 8 -13 10 2 10 9 0 20 -4 23 -10z m292 -32 c-3 -7 -5 -2
-5 12 0 14 2 19 5 13 2 -7 2 -19 0 -25z m33 2 c0 -5 -4 -10 -10 -10 -5 0 -10
5 -10 10 0 6 5 10 10 10 6 0 10 -4 10 -10z m-662 -17 c-10 -2 -18 -12 -18 -20
0 -9 -3 -14 -6 -10 -12 11 5 37 23 36 17 -1 17 -2 1 -6z m647 -63 c3 -5 1 -10
-4 -10 -6 0 -11 5 -11 10 0 6 2 10 4 10 3 0 8 -4 11 -10z m-248 -32 c-3 -8 -6
-5 -6 6 -1 11 2 17 5 13 3 -3 4 -12 1 -19z m30 -30 c-2 -13 -4 -5 -4 17 -1 22
1 32 4 23 2 -10 2 -28 0 -40z m-509 -158 c-1 -28 -2 -25 -8 15 -5 28 -8 66 -8
85 1 28 2 25 8 -15 5 -27 8 -66 8 -85z m19 8 c-2 -24 -4 -5 -4 42 0 47 2 66 4
43 2 -24 2 -62 0 -85z m-300 -30 c-2 -24 -4 -7 -4 37 0 44 2 63 4 43 2 -21 2
-57 0 -80z m300 -70 c-3 -7 -5 -2 -5 12 0 14 2 19 5 13 2 -7 2 -19 0 -25z
m-40 -10 c-3 -7 -5 -2 -5 12 0 14 2 19 5 13 2 -7 2 -19 0 -25z m527 -58 c4
-25 3 -31 -4 -20 -5 8 -10 26 -10 39 0 32 6 24 14 -19z m-734 -40 c0 -5 -4
-10 -10 -10 -5 0 -10 5 -10 10 0 6 5 10 10 10 6 0 10 -4 10 -10z m960 6 c0 -3
-4 -8 -10 -11 -5 -3 -10 -1 -10 4 0 6 5 11 10 11 6 0 10 -2 10 -4z m-656 -56
c-6 -5 -24 21 -24 34 0 6 6 1 14 -10 8 -10 12 -21 10 -24z m-294 -27 c-11 -17
-11 -17 -6 0 3 10 6 24 7 30 0 9 2 9 5 0 3 -7 0 -20 -6 -30z m642 -25 c-11
-11 -26 -18 -33 -15 -10 4 -7 8 9 12 12 4 22 14 22 22 0 8 5 11 11 7 7 -4 4
-13 -9 -26z m-625 -30 c-3 -8 -6 -5 -6 6 -1 11 2 17 5 13 3 -3 4 -12 1 -19z
m538 2 c-3 -5 -10 -10 -16 -10 -5 0 -9 5 -9 10 0 6 7 10 16 10 8 0 12 -4 9
-10z m105 -10 c-8 -6 -24 -9 -35 -9 l-20 1 20 5 c11 3 24 9 29 14 5 5 12 6 15
3 3 -3 -1 -9 -9 -14z m-222 -7 c-10 -2 -28 -2 -40 0 -13 2 -5 4 17 4 22 1 32
-1 23 -4z m447 -10 c-11 -3 -28 -12 -37 -21 -16 -14 -18 -14 -18 1 0 18 15 26
50 25 20 0 21 -1 5 -5z m-5 -38 c-7 -9 -15 -13 -18 -10 -3 2 1 11 8 20 7 9 15
13 18 10 3 -2 -1 -11 -8 -20z m-802 -10 c-3 -3 -9 2 -12 12 -6 14 -5 15 5 6 7
-7 10 -15 7 -18z m98 -62 c-7 -7 -26 7 -26 19 0 6 6 6 15 -2 9 -7 13 -15 11
-17z m614 3 c0 -2 -7 -7 -16 -10 -8 -3 -12 -2 -9 4 6 10 25 14 25 6z m-335
-66 c42 -11 1 -11 -50 -1 -34 7 -35 9 -10 9 17 0 44 -4 60 -8z m162 4 c-3 -3
-12 -4 -19 -1 -8 3 -5 6 6 6 11 1 17 -2 13 -5z"/>
<path d="M2511 6945 l-1 -545 155 0 155 0 0 264 c0 248 5 300 27 262 7 -12 94
-115 133 -156 8 -9 30 -33 48 -53 17 -21 32 -35 32 -31 0 3 7 1 15 -6 8 -7 13
-16 10 -20 -2 -4 16 -29 41 -56 24 -27 61 -69 82 -93 20 -25 50 -60 66 -78
l30 -33 148 0 148 0 0 545 0 546 -152 -3 -153 -3 -1 -272 c0 -150 -3 -275 -6
-278 -3 -3 -31 25 -63 62 -32 38 -65 75 -74 83 -9 8 -34 39 -56 68 -21 28 -43
52 -47 52 -4 0 -8 5 -8 11 0 6 -6 16 -12 23 -7 7 -44 51 -83 97 -38 46 -84 98
-101 116 -17 18 -29 35 -26 38 3 3 -65 5 -150 5 l-156 0 -1 -545z m31 188 c-1
-192 -3 -433 -5 -538 -1 -104 -3 52 -5 348 -1 295 1 537 6 537 4 0 6 -156 4
-347z m101 340 c-13 -2 -35 -2 -50 0 -16 2 -5 4 22 4 28 0 40 -2 28 -4z m134
1 c-3 -3 -12 -4 -19 -1 -8 3 -5 6 6 6 11 1 17 -2 13 -5z m801 -7 c12 3 13 2 4
-4 -10 -7 -12 -119 -10 -531 2 -343 0 -522 -7 -522 -7 0 -10 185 -10 535 0
294 1 531 3 526 2 -6 11 -7 20 -4z m-1011 -789 c-1 -145 -2 -27 -2 262 0 289
1 407 2 263 2 -145 2 -381 0 -525z m193 752 c0 -5 -4 -10 -10 -10 -5 0 -10 5
-10 10 0 6 5 10 10 10 6 0 10 -4 10 -10z m72 -12 c-7 -7 -12 -8 -12 -2 0 14
12 26 19 19 2 -3 -1 -11 -7 -17z m204 -245 c-7 -7 -26 7 -26 19 0 6 6 6 15 -2
9 -7 13 -15 11 -17z m-36 -18 c11 -13 10 -14 -4 -9 -9 3 -16 10 -16 15 0 13 6
11 20 -6z m75 -5 c3 -5 1 -10 -4 -10 -6 0 -11 5 -11 10 0 6 2 10 4 10 3 0 8
-4 11 -10z m5 -81 c0 -6 -4 -7 -10 -4 -5 3 -10 11 -10 16 0 6 5 7 10 4 6 -3
10 -11 10 -16z m86 -32 c8 -4 14 -13 14 -19 0 -6 -9 -3 -20 7 -11 10 -20 25
-19 34 0 14 1 14 6 1 3 -8 12 -19 19 -23z m4 -50 c11 -5 9 -6 -4 -4 -11 1 -21
9 -23 17 -3 10 -2 11 4 4 4 -6 15 -14 23 -17z m-272 -38 c-3 -8 -7 -3 -11 10
-4 17 -3 21 5 13 5 -5 8 -16 6 -23z m-20 -29 c-2 -7 -10 1 -17 16 -12 27 -11
28 4 12 10 -9 16 -21 13 -28z m379 3 c2 -6 -5 -13 -15 -15 -15 -4 -18 -1 -14
14 5 19 23 20 29 1z m-277 -43 c0 -5 -4 -10 -10 -10 -5 0 -10 5 -10 10 0 6 5
10 10 10 6 0 10 -4 10 -10z m-26 -25 c3 -8 1 -15 -4 -15 -6 0 -10 7 -10 15 0
8 2 15 4 15 2 0 6 -7 10 -15z m96 -66 c11 -19 10 -20 -9 -9 -22 11 -29 30 -11
30 5 0 14 -9 20 -21z m-34 -21 l19 -23 -25 20 c-14 11 -27 21 -29 22 -2 2 0 3
6 3 5 0 18 -10 29 -22z m42 -32 c0 -19 -3 -22 -13 -13 -8 8 -9 15 -1 24 6 7
12 12 12 13 1 0 2 -11 2 -24z m142 -171 c7 -9 11 -17 8 -20 -2 -2 -12 4 -21
15 -9 11 -13 20 -8 20 5 0 14 -7 21 -15z m77 -95 c11 -16 10 -18 -1 -14 -15 6
-30 34 -18 34 4 0 13 -9 19 -20z m-484 -57 c-7 -2 -19 -2 -25 0 -7 3 -2 5 12
5 14 0 19 -2 13 -5z"/>
<path d="M4380 7480 l45 -7 -42 -1 -43 -2 0 -369 c0 -203 -3 -382 -6 -399 -10
-48 -37 -70 -97 -77 -41 -5 -62 -3 -86 9 -33 18 -91 98 -73 104 5 1 8 12 5 23
-5 18 -13 19 -156 17 l-151 -3 2 -50 c5 -78 48 -182 98 -231 54 -54 108 -82
198 -101 134 -28 359 -8 402 35 9 9 24 16 34 17 40 3 84 53 139 160 l26 50 3
418 3 417 -173 -2 c-107 0 -156 -4 -128 -8z m287 -32 c-3 -8 -6 -5 -6 6 -1 11
2 17 5 13 3 -3 4 -12 1 -19z m-610 -694 c-7 -7 -249 -5 -256 2 -2 2 56 4 129
4 73 0 131 -3 127 -6z m-227 -109 c0 -8 -4 -15 -10 -15 -5 0 -10 7 -10 15 0 8
5 15 10 15 6 0 10 -7 10 -15z m503 -22 c-7 -3 -13 -13 -13 -24 0 -14 -7 -19
-30 -19 -16 0 -30 4 -30 9 0 5 -8 12 -17 14 -16 4 -16 5 -1 6 9 0 20 -3 23 -9
3 -5 15 -10 26 -10 12 0 17 4 14 11 -7 11 26 41 35 32 3 -3 -1 -8 -7 -10z
m293 0 c3 10 11 17 17 17 7 0 7 -4 -1 -12 -7 -7 -12 -18 -12 -26 0 -8 -9 -25
-20 -39 -11 -14 -20 -22 -20 -18 0 5 7 17 17 27 9 10 13 21 9 25 -4 4 -11 1
-16 -7 -7 -11 -10 -5 -10 20 1 33 2 34 15 16 13 -17 15 -17 21 -3z m-776 -19
c0 -8 -5 -12 -10 -9 -6 4 -8 11 -5 16 9 14 15 11 15 -7z m278 9 c-26 -6 -22
-23 5 -24 18 -1 19 -2 3 -6 -21 -6 -41 11 -32 26 4 6 15 10 24 10 15 -1 15 -2
0 -6z m105 -30 c-7 -2 -19 -2 -25 0 -7 3 -2 5 12 5 14 0 19 -2 13 -5z m-373
-38 c0 -5 -5 -3 -10 5 -5 8 -10 20 -10 25 0 6 5 3 10 -5 5 -8 10 -19 10 -25z
m123 -57 c-2 -5 -13 -8 -23 -8 -10 0 -21 3 -23 8 -3 4 8 7 23 7 15 0 26 -3 23
-7z m567 9 c0 -2 -10 -12 -22 -23 l-23 -19 19 23 c18 21 26 27 26 19z m-573
-43 c-3 -3 -12 -4 -19 -1 -8 3 -5 6 6 6 11 1 17 -2 13 -5z m138 -44 c-3 -5
-14 -10 -23 -10 -15 0 -15 2 -2 10 20 13 33 13 25 0z m158 3 c-7 -2 -19 -2
-25 0 -7 3 -2 5 12 5 14 0 19 -2 13 -5z m-89 -12 c4 -5 -3 -7 -14 -4 -23 6
-26 13 -6 13 8 0 17 -4 20 -9z m183 3 c-3 -3 -12 -4 -19 -1 -8 3 -5 6 6 6 11
1 17 -2 13 -5z m-74 -11 c-7 -2 -21 -2 -30 0 -10 3 -4 5 12 5 17 0 24 -2 18
-5z"/>
<path d="M4948 6945 l-3 -545 168 0 167 0 0 189 c0 104 2 195 5 203 4 10 47
12 215 10 l209 -3 4 43 4 43 1 -42 c1 -31 6 -43 17 -43 12 0 15 19 15 115 l0
115 -232 2 -233 3 0 105 0 105 268 3 267 2 0 120 0 120 -435 0 -435 0 -2 -545z
m95 528 c-13 -2 -33 -2 -45 0 -13 2 -3 4 22 4 25 0 35 -2 23 -4z m744 -60 c-3
-10 -5 -2 -5 17 0 19 2 27 5 18 2 -10 2 -26 0 -35z m0 -85 c-3 -7 -5 -2 -5 12
0 14 2 19 5 13 2 -7 2 -19 0 -25z m-344 -35 c-13 -2 -33 -2 -45 0 -13 2 -3 4
22 4 25 0 35 -2 23 -4z m160 0 c-13 -2 -33 -2 -45 0 -13 2 -3 4 22 4 25 0 35
-2 23 -4z m160 0 c-13 -2 -33 -2 -45 0 -13 2 -3 4 22 4 25 0 35 -2 23 -4z
m-463 -13 c0 -5 -5 -10 -11 -10 -5 0 -7 5 -4 10 3 6 8 10 11 10 2 0 4 -4 4
-10z m477 -14 c3 -2 -66 -3 -152 -1 -86 2 -159 6 -162 9 -3 2 66 3 152 1 86
-2 159 -6 162 -9z m-510 -18 c-3 -8 -6 -5 -6 6 -1 11 2 17 5 13 3 -3 4 -12 1
-19z m-19 -18 c4 0 6 -37 4 -81 -2 -49 1 -86 7 -92 6 -6 11 -16 11 -21 0 -6
-6 -2 -14 9 -8 12 -15 59 -18 120 -2 55 -3 92 0 83 2 -10 7 -18 10 -18z m-3
-220 c3 -5 1 -10 -4 -10 -6 0 -11 5 -11 10 0 6 2 10 4 10 3 0 8 -4 11 -10z
m40 -19 c-3 -6 -14 -11 -23 -11 -13 0 -13 2 4 14 21 15 30 14 19 -3z m95 9 c0
-5 -2 -10 -4 -10 -3 0 -8 5 -11 10 -3 6 -1 10 4 10 6 0 11 -4 11 -10z m308 3
c-10 -2 -26 -2 -35 0 -10 3 -2 5 17 5 19 0 27 -2 18 -5z m49 -150 c-2 -21 -4
-4 -4 37 0 41 2 58 4 38 2 -21 2 -55 0 -75z m-487 -103 c0 -5 -4 -10 -10 -10
-5 0 -10 5 -10 10 0 6 5 10 10 10 6 0 10 -4 10 -10z m-212 -337 c-16 -2 -40
-2 -55 0 -16 2 -3 4 27 4 30 0 43 -2 28 -4z"/>
<path d="M7435 7480 l-160 -5 0 -525 0 -525 168 -3 167 -2 0 529 c0 291 -3
531 -7 533 -5 2 -80 1 -168 -2z"/>
<path d="M7860 6950 l0 -530 155 0 155 0 0 250 c0 142 4 250 9 250 5 0 62 -62
127 -137 65 -76 121 -140 124 -143 3 -3 47 -53 98 -112 l93 -108 150 0 149 0
0 530 0 530 -155 0 -155 0 0 -249 c0 -138 -4 -252 -9 -255 -5 -3 -31 20 -57
52 -83 97 -90 105 -135 158 -24 28 -53 62 -64 75 -11 13 -58 68 -104 122 l-83
97 -149 0 -149 0 0 -530z"/>
<path d="M9150 6950 l0 -532 308 5 c321 4 347 7 454 55 102 45 191 147 224
256 62 207 25 466 -85 589 -55 60 -103 92 -195 125 -70 26 -75 27 -388 30
l-318 3 0 -531z m543 266 c87 -31 119 -92 125 -232 6 -137 -9 -204 -56 -253
-45 -47 -90 -61 -194 -61 l-78 0 0 280 0 280 83 0 c45 -1 99 -7 120 -14z"/>
<path d="M10370 6950 l0 -530 170 0 170 0 0 530 0 530 -170 0 -170 0 0 -530z"/>
<path d="M11243 7468 c-6 -7 -14 -24 -18 -38 -4 -14 -88 -245 -186 -514 -99
-269 -179 -491 -179 -493 0 -1 78 -3 173 -3 l174 0 22 75 22 75 186 -2 187 -3
22 -70 22 -70 176 -3 c194 -3 190 -4 162 60 -8 18 -59 155 -112 303 -54 149
-132 365 -174 480 l-77 210 -195 3 c-149 2 -198 -1 -205 -10z m220 -358 c8
-30 29 -100 45 -155 17 -55 32 -111 34 -125 l3 -25 -104 -3 c-57 -1 -107 1
-111 5 -4 4 16 89 46 188 29 99 53 182 53 185 3 16 22 -24 34 -70z"/>
<path d="M3034 6218 c12 -74 65 -277 112 -427 286 -906 900 -1719 1699 -2246
1157 -765 2588 -916 3890 -413 787 305 1496 875 1968 1581 260 389 439 775
561 1207 53 189 67 253 57 263 -14 14 -41 0 -41 -20 0 -10 -9 -52 -19 -93
-184 -738 -558 -1402 -1093 -1943 -979 -988 -2359 -1423 -3737 -1177 -723 129
-1425 466 -1988 953 -658 570 -1119 1319 -1329 2161 -24 99 -50 183 -57 188
-24 15 -29 7 -23 -34z"/>
<path d="M5497 6103 c-4 -3 -7 -17 -7 -30 l0 -23 1880 0 1880 0 0 24 c0 13 -7
27 -16 30 -22 8 -3729 8 -3737 -1z"/>
<path d="M6755 5811 c-29 -12 -127 -119 -168 -182 -59 -93 -106 -196 -133
-292 -24 -84 -31 -96 -75 -135 -80 -71 -93 -114 -20 -68 22 14 45 26 51 26 6
0 10 -27 10 -63 0 -69 10 -87 50 -87 28 0 53 23 111 102 19 26 39 48 45 48 6
0 21 -11 34 -25 18 -19 34 -25 66 -25 36 0 51 7 95 45 28 24 55 42 59 40 4 -3
10 -27 12 -55 6 -62 29 -90 75 -90 30 0 43 9 95 65 61 65 78 76 78 52 0 -20
37 -56 65 -63 40 -10 108 33 195 123 44 45 85 83 89 83 5 0 23 -12 40 -26 38
-32 41 -73 11 -159 -11 -32 -20 -67 -20 -77 0 -50 72 -24 191 70 37 28 70 52
72 52 2 0 7 -19 10 -42 4 -31 14 -51 38 -72 29 -26 37 -28 86 -23 59 6 161 57
202 101 35 38 50 34 44 -11 -7 -51 9 -107 31 -111 39 -8 66 10 116 78 29 38
57 70 64 70 7 0 23 -11 36 -25 18 -19 34 -25 65 -25 35 0 49 7 98 51 55 49 84
86 74 95 -5 5 -75 -34 -95 -53 -19 -19 -56 -16 -75 5 -9 10 -20 36 -25 58 -7
35 -11 39 -37 39 -27 0 -35 -9 -86 -99 -31 -55 -61 -102 -66 -103 -19 -7 -21
23 -9 90 11 54 21 75 58 119 130 153 217 296 253 414 19 64 19 71 -5 84 -44
24 -108 -23 -201 -147 -69 -91 -152 -273 -174 -380 -4 -22 -25 -49 -65 -85
-100 -89 -186 -121 -224 -82 -19 19 -21 74 -3 95 17 21 129 104 166 123 55 29
67 86 18 86 -13 0 -51 -17 -85 -37 -63 -39 -95 -63 -256 -190 -87 -69 -116
-85 -116 -63 0 6 7 37 16 69 10 36 14 72 10 94 -8 42 -51 87 -108 113 -39 18
-41 18 -77 -1 -24 -14 -37 -28 -39 -45 -5 -37 -69 -125 -113 -155 -30 -22 -41
-25 -58 -16 -21 12 -25 22 -36 84 -5 34 -9 38 -33 35 -18 -2 -35 -16 -55 -46
-40 -59 -125 -144 -137 -137 -23 14 -6 163 27 232 38 81 -29 74 -90 -10 -49
-69 -117 -142 -143 -155 -31 -16 -61 9 -77 66 -10 34 -20 48 -35 50 -26 4 -34
-5 -96 -112 -66 -116 -81 -122 -71 -30 8 74 19 102 59 147 43 49 91 109 100
126 5 8 18 25 29 36 26 28 113 209 129 268 12 45 11 50 -7 63 -21 16 -31 16
-60 5z m15 -96 c0 -43 -167 -314 -210 -340 -17 -11 -11 25 16 89 31 72 28 67
83 147 71 103 111 141 111 104z m1750 3 c0 -45 -191 -348 -220 -348 -5 0 -1
24 11 53 11 28 24 64 29 78 12 38 151 229 167 229 7 0 13 -5 13 -12z"/>
<path d="M6160 5744 c-140 -37 -275 -184 -320 -346 -38 -137 -18 -292 48 -361
39 -42 118 -77 174 -77 60 0 150 33 194 72 55 48 43 62 -23 27 -84 -43 -156
-45 -215 -4 -144 102 -130 400 26 556 61 60 129 80 187 54 33 -15 39 -23 39
-48 0 -17 -7 -38 -16 -48 -22 -24 -54 -153 -54 -218 0 -53 0 -53 28 -46 37 9
45 19 77 100 20 52 28 95 32 167 7 116 -3 148 -53 171 -41 20 -52 20 -124 1z"/>
<path d="M3162 4885 c-20 -15 -117 -71 -169 -100 -19 -10 -21 -14 -10 -29 12
-16 16 -16 57 8 25 14 48 26 52 26 4 0 19 -22 35 -50 26 -47 41 -59 56 -44 3
3 -8 28 -24 55 -16 28 -29 54 -29 59 0 5 14 17 31 26 36 18 30 23 85 -73 20
-35 42 -63 51 -63 8 0 13 6 11 13 -7 27 -104 186 -113 187 -6 0 -20 -7 -33
-15z"/>
<path d="M11166 4868 c-23 -21 -100 -147 -94 -154 21 -20 214 -124 224 -120
25 10 14 31 -28 51 -23 11 -43 25 -45 31 -2 6 7 26 20 45 22 33 26 34 87 35
54 1 66 5 78 23 14 21 14 21 -51 21 -62 0 -65 1 -72 28 -15 63 -72 82 -119 40z
m79 -37 c6 -19 -17 -74 -47 -115 -14 -17 -16 -17 -46 -2 -18 9 -32 19 -32 22
0 3 16 30 36 60 39 58 77 73 89 35z"/>
<path d="M3420 4325 c-52 -41 -96 -79 -98 -84 -2 -6 16 -34 40 -63 24 -30 54
-68 68 -86 18 -23 29 -30 39 -23 11 7 1 24 -43 79 -31 39 -56 75 -56 80 0 4
14 18 30 31 l30 22 28 -32 c15 -18 32 -40 39 -48 9 -12 14 -13 24 -4 9 9 3 22
-27 58 l-38 47 25 19 c13 10 31 19 39 19 8 0 36 -29 61 -64 34 -48 49 -62 60
-55 16 10 20 3 -61 108 -30 39 -57 71 -60 71 -3 0 -48 -34 -100 -75z"/>
<path d="M10781 4313 l-65 -86 30 -24 c108 -88 176 -135 183 -127 50 58 131
165 131 173 0 26 -31 7 -68 -42 -67 -90 -69 -91 -103 -66 -16 11 -29 25 -29
30 0 6 16 30 35 53 29 35 33 45 22 54 -11 9 -21 2 -47 -33 -38 -50 -45 -53
-80 -25 -28 21 -30 15 38 103 38 49 47 78 24 77 -4 -1 -36 -40 -71 -87z"/>
<path d="M5335 4079 c-51 -12 -115 -40 -115 -51 0 -11 1 -11 51 11 24 10 61
22 83 26 38 6 38 6 31 -22 -16 -63 -37 -191 -40 -243 -2 -30 -7 -74 -10 -97
-4 -25 -2 -43 3 -43 6 0 13 32 17 71 5 45 12 72 21 76 8 3 48 -27 96 -72 86
-80 190 -155 214 -155 23 0 16 17 -10 24 -13 3 -46 23 -74 43 -49 37 -182 159
-182 167 0 2 24 15 53 30 62 31 99 63 127 108 27 45 25 62 -10 92 -52 44 -154
58 -255 35z m227 -36 c21 -12 34 -28 36 -44 4 -38 -57 -103 -134 -140 -58 -29
-67 -31 -80 -17 -13 13 -13 25 1 104 9 49 17 97 18 108 1 16 8 18 64 13 35 -2
77 -13 95 -24z"/>
<path d="M6095 4079 c-51 -12 -115 -40 -115 -51 0 -11 1 -11 55 13 67 30 187
37 253 15 62 -21 76 -37 67 -73 -19 -76 -225 -194 -225 -129 0 6 7 52 15 101
17 104 18 116 6 95 -13 -21 -42 -173 -46 -240 -3 -30 -7 -79 -11 -109 -3 -33
-2 -51 4 -47 5 3 13 40 17 81 8 91 17 94 88 26 123 -115 223 -187 249 -179 6
2 -13 18 -43 35 -49 28 -220 172 -227 192 -1 5 22 20 52 35 60 29 132 101 142
141 19 74 -137 126 -281 94z"/>
<path d="M7307 4036 c-57 -21 -77 -43 -77 -87 0 -48 39 -90 140 -150 43 -25
70 -48 70 -58 0 -26 -38 -57 -100 -81 -30 -12 -59 -26 -64 -31 -31 -30 104 21
152 58 51 39 42 67 -38 119 -134 87 -164 126 -134 171 18 28 70 53 111 53 64
0 93 -57 57 -108 -8 -12 -14 -28 -11 -35 2 -6 14 4 25 23 35 56 28 101 -19
125 -34 18 -62 18 -112 1z"/>
<path d="M7871 4014 c-68 -34 -146 -111 -171 -169 -22 -52 -26 -125 -8 -143
29 -29 120 -8 206 47 33 22 63 37 66 34 3 -4 6 -18 6 -33 0 -18 -15 -41 -49
-74 -63 -62 -81 -119 -54 -174 10 -21 26 -39 36 -40 50 -9 97 91 97 203 0 51
4 65 23 82 41 37 48 37 30 -1 -13 -29 -14 -40 -5 -61 26 -56 133 -12 118 49
-6 23 -3 26 19 26 29 0 28 4 25 -169 -2 -128 14 -128 23 1 8 115 21 163 53
195 23 23 27 24 47 10 43 -29 13 -87 -46 -87 -16 0 -26 -4 -22 -10 10 -17 51
-11 79 11 33 26 37 83 7 99 -40 21 -70 12 -93 -26 -20 -34 -22 -35 -29 -16 -7
18 -14 20 -46 15 -47 -7 -60 -18 -44 -37 27 -33 -24 -86 -62 -64 -24 13 -21
42 9 78 20 23 24 34 15 43 -8 8 -22 3 -56 -21 -25 -18 -47 -32 -49 -32 -3 0
-7 14 -11 30 -4 17 -11 30 -16 30 -6 0 -35 -16 -66 -36 -72 -46 -151 -77 -179
-70 -30 8 -37 44 -18 106 29 98 200 235 266 214 36 -10 48 -24 48 -53 0 -32
-9 -45 -35 -56 -20 -8 -20 -8 0 -13 25 -6 55 31 55 69 0 69 -76 89 -169 43z
m85 -479 c-31 -68 -58 -74 -76 -19 -18 53 0 104 53 149 l42 36 3 -56 c2 -43
-3 -69 -22 -110z"/>
<path d="M8458 4034 c-17 -26 -39 -190 -36 -265 2 -66 6 -84 18 -87 11 -2 23
14 37 49 24 56 43 58 43 5 0 -38 33 -86 59 -86 10 0 36 16 58 35 49 42 56 43
71 10 12 -26 36 -33 47 -15 4 6 15 8 25 5 13 -4 27 6 51 40 18 25 36 45 40 45
5 0 13 -18 19 -41 10 -37 14 -41 38 -36 17 3 35 -2 51 -14 13 -10 30 -19 38
-19 22 0 91 41 97 57 6 15 -10 18 -19 3 -12 -20 -67 -42 -91 -36 -33 9 -30 32
5 39 37 8 61 32 61 63 0 19 -5 24 -24 24 -28 0 -86 -45 -86 -66 0 -7 -10 -18
-21 -25 -25 -13 -39 1 -39 37 0 12 -6 27 -14 33 -11 9 -22 2 -55 -36 l-42 -48
1 40 c1 22 1 45 0 50 -3 18 -19 -29 -19 -57 -1 -17 -9 -32 -21 -38 -18 -9 -23
-7 -38 19 -9 17 -21 31 -25 31 -5 0 -22 -14 -38 -31 -16 -17 -33 -28 -39 -24
-34 21 30 113 70 100 23 -7 28 10 5 19 -41 15 -100 -48 -99 -106 1 -25 -3 -38
-12 -38 -18 0 -26 16 -39 79 -6 30 -16 56 -22 58 -7 3 -26 -20 -43 -49 l-32
-53 6 120 c3 66 10 137 16 158 11 38 10 71 -2 51z m602 -253 c0 -12 -40 -41
-57 -41 -19 0 -16 27 5 39 22 13 52 14 52 2z"/>
<path d="M10373 3865 c-46 -45 -83 -87 -83 -93 0 -21 23 -13 58 21 l33 32 81
-83 c69 -72 82 -82 94 -70 13 12 4 25 -61 94 -41 43 -75 84 -75 91 0 6 14 23
31 37 19 16 29 32 25 41 -3 8 -9 14 -13 13 -4 -1 -45 -38 -90 -83z"/>
<path d="M3818 3846 l-87 -91 77 -77 c42 -43 82 -78 89 -78 26 0 11 27 -47 84
-33 32 -60 63 -60 69 0 5 34 44 75 85 59 59 73 78 64 88 -6 8 -14 13 -18 13
-3 -1 -45 -42 -93 -93z"/>
<path d="M6565 3773 c-4 -32 -7 -64 -8 -72 -4 -33 21 -18 48 29 16 28 34 49
40 47 5 -2 13 -23 17 -47 13 -75 34 -77 69 -9 21 41 39 44 39 6 0 -35 15 -50
41 -44 14 3 32 0 43 -9 26 -19 44 -18 87 5 35 19 36 19 47 0 29 -46 116 -8
114 49 0 25 4 32 18 32 10 0 22 5 25 10 4 6 -8 10 -29 10 -41 0 -51 -12 -36
-40 9 -17 6 -25 -14 -45 -29 -29 -39 -31 -59 -10 -19 18 -12 47 19 80 13 14
18 25 12 25 -7 0 -32 -22 -57 -49 -49 -53 -91 -71 -116 -51 -22 18 -18 27 15
33 60 13 93 78 42 85 -33 5 -68 -22 -92 -68 -11 -22 -25 -40 -30 -40 -5 0 -12
17 -15 38 -14 79 -22 81 -59 12 -15 -27 -31 -50 -35 -50 -5 0 -12 21 -16 46
-9 60 -29 67 -67 23 l-29 -34 4 48 c6 68 -10 58 -18 -10z m365 8 c0 -6 -10
-17 -22 -25 -41 -29 -65 -15 -32 18 17 17 54 22 54 7z"/>
<path d="M5865 3797 c8 -32 -11 -93 -30 -101 -19 -7 -41 27 -52 79 l-8 40 -5
-45 c-4 -37 -11 -48 -40 -68 -38 -25 -83 -26 -88 -1 -2 11 10 19 38 28 41 12
63 41 53 69 -8 20 -50 14 -83 -14 -26 -22 -31 -33 -28 -63 2 -27 10 -39 31
-51 26 -14 31 -13 77 12 l50 28 21 -21 c18 -18 23 -19 42 -6 12 7 29 35 37 60
12 37 20 47 38 47 12 0 22 5 22 10 0 6 -11 10 -24 10 -13 0 -32 3 -41 6 -13 5
-15 2 -10 -19z m-145 -16 c0 -12 -40 -41 -57 -41 -19 0 -16 27 5 39 22 13 52
14 52 2z"/>
<path d="M6401 3764 c-23 -30 -27 -74 -9 -92 36 -36 113 6 106 58 -4 25 0 29
26 36 29 6 29 7 7 11 -12 3 -33 2 -46 -1 -21 -6 -22 -8 -12 -37 11 -28 10 -33
-12 -50 -29 -23 -47 -24 -60 -2 -10 19 1 58 26 85 9 10 11 18 5 18 -6 0 -20
-12 -31 -26z"/>
<path d="M5900 3680 c0 -5 5 -10 10 -10 6 0 10 5 10 10 0 6 -4 10 -10 10 -5 0
-10 -4 -10 -10z"/>
<path d="M7510 3680 c0 -5 5 -10 10 -10 6 0 10 5 10 10 0 6 -4 10 -10 10 -5 0
-10 -4 -10 -10z"/>
<path d="M4278 3440 l-77 -100 82 -62 c45 -34 85 -66 88 -71 8 -12 29 0 29 16
-1 7 -32 34 -70 61 -39 27 -70 53 -70 57 0 5 30 47 66 94 61 79 71 105 41 105
-7 0 -47 -45 -89 -100z"/>
<path d="M9995 3530 c-3 -5 17 -41 46 -80 28 -39 49 -73 46 -76 -5 -5 -198 30
-229 41 -7 3 -23 -3 -35 -13 l-22 -17 75 -100 c78 -103 88 -113 99 -96 3 6
-21 47 -55 92 -34 45 -59 83 -57 85 7 7 240 -47 255 -58 9 -8 18 -6 31 6 19
17 17 21 -57 121 -42 57 -80 104 -84 105 -4 0 -10 -4 -13 -10z"/>
<path d="M9403 3141 c-34 -20 -76 -44 -93 -53 l-31 -18 41 -72 c23 -40 50 -92
61 -116 l20 -43 82 44 c45 25 92 50 105 56 18 10 21 15 12 26 -9 11 -24 6 -82
-26 -39 -21 -76 -39 -83 -39 -13 0 -45 42 -45 59 0 6 23 22 50 36 28 14 50 29
50 35 0 21 -22 19 -63 -4 -56 -33 -62 -33 -77 5 -12 29 -12 33 11 50 13 10 45
28 72 40 43 20 59 41 40 52 -5 2 -36 -12 -70 -32z"/>
<path d="M4778 3130 c-32 -34 -38 -48 -38 -84 0 -28 8 -55 23 -77 24 -36 96
-79 134 -79 41 0 92 28 113 62 60 99 -20 218 -146 218 -42 0 -51 -4 -86 -40z
m148 -10 c101 -49 74 -190 -37 -190 -56 0 -109 48 -109 100 0 41 29 86 64 100
31 13 36 12 82 -10z"/>
<path d="M5375 2795 c0 -122 2 -137 18 -147 15 -8 22 -6 33 10 38 55 117 141
124 137 5 -3 6 -50 4 -105 -4 -97 -4 -101 18 -109 16 -6 25 -5 31 5 4 7 43 54
87 105 43 51 77 97 74 101 -7 10 -44 11 -44 0 0 -9 -110 -136 -122 -141 -6 -2
-9 36 -7 98 3 82 1 104 -11 111 -8 5 -17 10 -20 10 -3 0 -34 -36 -70 -79 -35
-44 -68 -77 -73 -74 -5 3 -7 51 -6 107 3 94 2 101 -17 104 -18 2 -19 -4 -19
-133z"/>
<path d="M8890 2890 c-99 -12 -149 -52 -157 -124 -17 -146 142 -204 259 -95
35 32 39 40 28 54 -18 21 -27 19 -42 -11 -32 -65 -140 -82 -185 -29 -27 31
-31 90 -8 122 20 29 97 57 135 49 23 -4 32 -2 37 10 9 24 -8 31 -67 24z"/>
<path d="M6135 2665 c-35 -19 -45 -32 -45 -60 0 -35 16 -47 96 -74 75 -25 79
-29 79 -56 0 -27 -4 -30 -35 -33 -49 -5 -105 14 -128 43 -17 22 -21 23 -38 10
-18 -14 -18 -15 11 -40 17 -13 54 -32 83 -41 45 -13 59 -14 95 -2 46 14 73 53
62 88 -7 23 -59 52 -121 69 -53 14 -72 35 -53 57 20 24 112 14 143 -15 21 -20
24 -20 36 -6 12 14 11 18 -1 26 -68 46 -138 59 -184 34z"/>
<path d="M7913 2627 c-34 -7 -64 -15 -68 -18 -6 -6 30 -248 38 -256 2 -2 11
-1 19 2 11 5 15 21 14 62 l-1 56 64 13 c76 16 101 35 101 79 0 62 -55 83 -167
62z m125 -59 c3 -22 -2 -28 -30 -37 -19 -6 -51 -12 -73 -14 -39 -2 -40 -1 -40
33 0 40 20 50 95 47 41 -2 45 -5 48 -29z"/>
<path d="M6714 2460 l-9 -130 22 0 c19 0 22 6 25 53 l3 52 55 3 c30 2 70 0 88
-3 l34 -6 -4 -57 c-3 -51 -1 -57 16 -57 23 0 23 0 27 145 4 103 2 115 -13 118
-14 3 -18 -3 -18 -30 0 -70 -7 -78 -65 -78 -29 0 -67 3 -85 6 l-32 7 4 53 c4
50 3 54 -17 54 -21 0 -22 -6 -31 -130z"/>
<path d="M7394 2518 c3 -29 6 -88 6 -130 0 -77 0 -78 26 -78 22 0 25 3 21 23
-3 12 -7 70 -8 130 -2 107 -2 107 -27 107 -24 0 -25 -2 -18 -52z"/>
<path d="M3981 12062 c-70 -138 -134 -178 -315 -199 -195 -22 -272 -40 -349
-79 -76 -39 -150 -89 -181 -123 -23 -25 -24 -25 38 -6 102 31 200 16 380 -56
236 -96 268 -102 367 -73 72 22 130 51 276 142 118 73 140 93 127 113 -3 5
-40 27 -83 49 -95 47 -161 116 -191 198 -38 106 -34 104 -69 34z"/>
<path d="M10337 12064 c-37 -119 -105 -192 -231 -248 -83 -37 -78 -51 47 -132
56 -37 149 -90 207 -118 98 -48 109 -51 180 -51 78 1 77 1 295 93 139 58 281
77 365 47 24 -8 45 -13 47 -11 11 11 -114 104 -192 144 -66 33 -142 51 -289
67 -77 9 -151 18 -165 22 -82 19 -164 93 -208 185 -15 32 -30 58 -33 58 -3 0
-14 -25 -23 -56z"/>
<path d="M2843 12018 c-6 -7 -12 -62 -14 -123 l-4 -110 109 -3 c60 -1 113 1
117 5 4 4 11 59 15 121 l7 112 -96 0 c-52 0 -102 2 -110 5 -7 3 -19 0 -24 -7z"/>
<path d="M11306 12013 c-6 -7 1 -166 10 -210 4 -22 8 -23 119 -23 l115 0 0 43
c0 24 -3 78 -6 120 l-7 77 -112 0 c-61 0 -115 -3 -119 -7z"/>
<path d="M2420 11551 l-55 -6 4 -115 c2 -63 5 -117 6 -120 2 -3 54 -1 117 5
l113 10 -1 28 c0 15 -1 68 -2 117 l-2 90 -62 -2 c-35 -1 -88 -4 -118 -7z"/>
<path d="M11772 11444 l3 -119 108 -10 c63 -6 111 -7 114 -2 10 17 16 224 6
230 -5 3 -59 9 -121 13 l-113 7 3 -119z"/>
<path d="M3320 11369 l-21 -71 -42 7 c-36 5 -140 30 -216 51 -22 7 -23 5 -17
-17 28 -98 45 -175 48 -215 l3 -48 -67 -19 c-38 -11 -68 -24 -68 -28 0 -5 31
-30 69 -55 38 -25 72 -52 75 -59 6 -17 -12 -157 -30 -229 -8 -32 -12 -61 -10
-64 3 -2 20 13 38 34 18 21 64 75 102 119 103 119 363 378 477 474 54 47 97
87 94 89 -2 3 -31 -3 -63 -12 -76 -21 -223 -36 -239 -24 -6 5 -30 38 -53 74
-23 35 -46 64 -51 64 -4 0 -18 -32 -29 -71z"/>
<path d="M10975 11379 c-21 -34 -44 -67 -51 -73 -14 -15 -145 -4 -235 19 -34
9 -64 14 -67 11 -3 -3 -3 -7 -1 -9 124 -92 462 -425 624 -616 44 -51 81 -89
83 -83 2 6 -4 36 -12 69 -18 73 -30 186 -22 215 3 14 31 39 71 63 36 22 65 45
65 52 0 10 -91 43 -120 43 -19 0 -5 118 24 213 13 42 22 77 21 77 -2 0 -45
-11 -97 -24 -51 -14 -114 -28 -140 -31 -46 -7 -47 -6 -53 21 -13 58 -31 108
-41 111 -5 2 -27 -24 -49 -58z"/>
<path d="M2728 11248 c-25 -21 -94 -119 -121 -173 -43 -86 -56 -138 -72 -291
-9 -82 -21 -167 -26 -189 -22 -84 -88 -158 -187 -207 l-64 -32 69 -24 c124
-45 183 -98 233 -212 32 -73 50 -90 73 -71 27 22 158 239 195 324 33 74 37 90
37 167 -1 81 -4 92 -62 235 -92 227 -108 331 -68 445 16 44 15 45 -7 28z"/>
<path d="M11630 11254 c0 -6 7 -32 16 -58 34 -99 8 -225 -99 -486 -43 -103
-52 -162 -38 -229 24 -111 207 -436 246 -436 15 0 31 21 60 79 22 43 58 96 79
118 38 39 144 98 176 98 8 0 21 4 29 9 9 6 -5 18 -50 41 -80 39 -142 99 -168
160 -13 30 -25 99 -36 196 -18 171 -48 281 -101 370 -39 66 -113 156 -114 138z"/>
<path d="M2142 11074 c-18 -9 -69 -57 -114 -106 -118 -128 -166 -153 -269
-137 -29 5 -55 6 -57 4 -5 -4 26 -48 64 -91 11 -12 41 -35 68 -53 63 -39 118
-41 212 -5 64 24 77 26 180 20 136 -7 146 -1 152 98 12 186 -115 331 -236 270z"/>
<path d="M12105 11067 c-48 -27 -79 -80 -101 -170 -19 -76 -12 -149 16 -177
17 -17 30 -18 127 -13 96 5 115 3 168 -17 33 -12 85 -24 115 -27 47 -3 62 1
107 27 48 28 133 118 133 142 0 5 -9 6 -21 3 -40 -13 -133 -8 -165 8 -17 9
-75 61 -129 116 -133 136 -172 152 -250 108z"/>
<path d="M2084 10569 c-32 -36 -113 -83 -234 -134 -135 -57 -227 -112 -270
-162 -76 -86 -94 -197 -47 -290 15 -29 27 -55 27 -58 0 -3 -35 -5 -78 -5 -92
0 -161 20 -216 64 l-39 30 5 -75 c14 -212 204 -389 419 -389 97 0 244 51 346
121 59 41 68 38 82 -25 20 -92 138 -315 166 -316 23 0 183 302 220 419 33 103
-6 223 -101 310 -102 94 -209 94 -382 0 -40 -22 -77 -37 -82 -34 -18 11 -33
82 -25 122 5 29 22 53 74 103 84 82 129 147 153 222 19 63 24 118 10 118 -5 0
-17 -10 -28 -21z"/>
<path d="M12256 10543 c8 -57 37 -135 66 -177 12 -17 55 -65 96 -108 70 -71
75 -80 80 -127 4 -43 -11 -111 -24 -111 -3 0 -40 18 -82 39 -107 54 -183 75
-245 68 -92 -11 -164 -71 -221 -184 -35 -71 -36 -150 0 -241 34 -87 152 -315
182 -350 l22 -27 25 30 c38 44 111 195 136 278 11 40 22 73 24 75 1 2 34 -17
71 -41 192 -123 368 -147 520 -72 125 61 210 176 234 318 17 94 10 106 -37 68
-54 -42 -120 -61 -213 -61 -44 0 -80 3 -80 6 0 3 11 25 25 49 57 96 40 205
-45 298 -59 65 -124 104 -274 167 -119 49 -199 94 -231 130 -29 32 -37 24 -29
-27z"/>
<path d="M1186 9519 c-56 -13 -148 -65 -187 -105 l-33 -34 32 0 c63 0 141 -39
211 -106 54 -52 63 -65 51 -74 -8 -5 -23 -10 -33 -10 -59 0 -147 -77 -172
-149 -19 -57 -19 -166 0 -240 8 -31 35 -106 60 -166 48 -115 75 -207 75 -262
0 -18 4 -33 9 -33 15 0 70 94 91 154 15 42 20 87 22 186 l3 131 42 40 c25 23
52 39 66 39 22 0 27 -9 52 -87 59 -194 135 -265 280 -265 111 0 213 47 258
120 44 68 157 408 157 468 0 36 -185 -11 -317 -81 -46 -24 -84 -41 -87 -37 -2
4 -6 25 -10 47 -18 105 -79 248 -136 320 -99 124 -272 182 -434 144z"/>
<path d="M12333 9427 c-23 -56 -43 -108 -45 -116 -2 -9 32 -28 102 -57 58 -23
111 -43 118 -43 15 -1 114 204 110 226 -3 15 -195 93 -227 93 -11 0 -29 -33
-58 -103z"/>
<path d="M12949 9511 c-160 -51 -272 -198 -325 -427 -8 -38 -18 -72 -20 -76
-3 -4 -22 3 -42 16 -109 69 -362 144 -362 108 0 -5 15 -64 34 -133 37 -133
106 -317 134 -354 41 -56 173 -115 254 -115 57 0 130 32 174 75 46 47 61 76
104 200 30 90 42 98 95 65 58 -36 70 -69 67 -190 -2 -83 2 -120 18 -172 20
-65 74 -158 96 -165 7 -2 13 23 17 72 4 58 16 100 52 187 74 178 87 225 89
313 1 104 -15 155 -67 210 -33 34 -56 47 -105 61 -34 9 -62 21 -62 25 0 15
115 111 163 136 28 14 71 28 96 32 l45 6 -25 26 c-98 103 -284 147 -430 100z"/>
<path d="M1915 9484 c-132 -48 -175 -67 -175 -79 0 -27 99 -225 113 -225 16 0
208 77 219 88 12 12 -85 232 -102 231 -8 0 -33 -7 -55 -15z"/>
<path d="M752 8473 c-30 -6 -26 -14 28 -55 78 -59 84 -78 90 -278 4 -127 9
-181 19 -196 57 -86 209 -69 324 37 39 35 50 52 54 85 5 39 3 42 -43 79 -76
59 -112 103 -154 190 -41 84 -74 116 -141 135 -34 10 -133 11 -177 3z"/>
<path d="M13425 8464 c-56 -21 -83 -49 -123 -134 -38 -79 -98 -152 -144 -176
-71 -37 -72 -98 -2 -166 94 -91 216 -124 291 -78 52 31 57 50 63 241 6 197 12
215 91 272 22 16 39 32 39 36 0 24 -154 27 -215 5z"/>
<path d="M1463 8383 c3 -10 13 -38 23 -63 10 -26 17 -74 18 -115 0 -94 -27
-150 -143 -293 -50 -62 -102 -134 -116 -162 -37 -74 -75 -215 -75 -279 l1 -56
24 46 c47 90 144 166 301 234 184 79 212 94 253 130 53 48 72 81 109 190 32
92 82 297 82 335 0 31 -26 35 -83 12 -126 -52 -215 -49 -330 8 -71 35 -71 35
-64 13z"/>
<path d="M12844 8369 c-115 -55 -201 -57 -322 -10 -63 25 -78 26 -85 6 -9 -21
48 -267 83 -365 62 -168 87 -190 325 -290 55 -23 124 -56 155 -73 64 -36 161
-130 179 -175 37 -88 37 18 0 156 -30 116 -66 176 -184 317 -91 109 -117 162
-123 253 -4 57 0 86 18 138 12 36 20 67 18 68 -1 2 -30 -10 -64 -25z"/>
<path d="M12548 7553 c9 -140 9 -667 0 -806 -5 -59 -4 -106 1 -103 4 3 25 34
45 69 20 35 59 87 85 117 l48 53 87 -17 c48 -10 90 -15 93 -12 3 3 -11 34 -31
70 l-36 65 48 38 c26 21 80 56 120 78 39 22 72 43 72 47 0 4 -10 10 -22 14
-26 8 -151 85 -192 117 l-30 24 30 49 c45 73 48 84 21 84 -12 -1 -53 -7 -91
-14 l-69 -13 -25 26 c-35 37 -93 118 -125 174 -16 26 -30 47 -32 47 -3 0 -1
-48 3 -107z"/>
<path d="M1777 7577 c-25 -39 -65 -93 -89 -119 l-43 -48 -65 15 c-77 17 -110
19 -110 5 0 -5 14 -33 31 -62 23 -38 28 -57 22 -68 -12 -19 -122 -93 -187
-127 l-49 -25 64 -35 c71 -39 179 -113 179 -122 0 -3 -14 -34 -32 -68 -18 -34
-30 -64 -27 -67 3 -3 45 2 93 11 l88 17 29 -34 c16 -19 57 -75 90 -125 l61
-90 -6 110 c-15 290 -17 449 -7 664 6 129 10 235 8 237 -2 2 -24 -29 -50 -69z"/>
<path d="M779 7562 l-81 -77 39 -45 c21 -25 57 -65 80 -90 l42 -45 81 80 c44
44 80 82 80 85 0 14 -135 170 -147 170 -7 0 -50 -35 -94 -78z"/>
<path d="M13416 7553 l-69 -85 79 -79 c43 -43 83 -79 89 -79 13 1 150 159 150
174 0 16 -149 156 -166 155 -8 0 -45 -39 -83 -86z"/>
<path d="M800 6928 c-30 -33 -64 -74 -78 -89 l-23 -28 81 -78 c45 -43 85 -79
90 -81 9 -3 150 160 150 175 0 8 -134 143 -156 156 -6 3 -35 -21 -64 -55z"/>
<path d="M13432 6907 c-71 -71 -82 -86 -70 -98 8 -8 40 -47 72 -86 32 -40 61
-73 65 -73 11 0 171 150 171 160 0 8 -49 67 -115 138 l-40 43 -83 -84z"/>
<path d="M1170 6829 c0 -66 31 -192 67 -268 14 -29 68 -106 119 -170 124 -155
148 -204 147 -301 0 -51 -7 -92 -21 -129 -12 -30 -20 -57 -18 -59 3 -2 35 11
73 29 96 47 194 52 290 15 38 -14 79 -26 92 -26 22 0 23 3 18 43 -19 142 -91
378 -136 449 -41 65 -81 91 -244 162 -231 100 -304 152 -357 256 l-29 55 -1
-56z"/>
<path d="M13177 6831 c-24 -54 -129 -150 -208 -188 -35 -18 -113 -52 -172 -76
-169 -70 -222 -121 -271 -257 -37 -101 -97 -355 -89 -376 7 -20 44 -15 128 16
87 32 181 25 275 -22 39 -19 70 -31 70 -26 0 5 -9 37 -21 71 -16 48 -20 79
-17 137 6 94 20 122 141 273 104 130 137 189 166 298 24 90 37 189 24 189 -5
0 -17 -18 -26 -39z"/>
<path d="M943 6395 c-62 -27 -73 -60 -74 -235 -1 -195 -9 -220 -96 -289 -23
-19 -40 -38 -37 -42 3 -5 47 -9 97 -9 68 0 103 5 132 19 52 24 67 42 110 129
39 80 88 139 152 183 36 25 43 35 43 62 0 57 -59 121 -155 168 -66 32 -121 37
-172 14z"/>
<path d="M13273 6389 c-62 -24 -159 -112 -169 -152 -8 -33 10 -74 37 -82 42
-14 120 -106 160 -190 43 -90 68 -115 134 -135 46 -13 197 -10 201 5 2 6 -17
25 -41 43 -74 54 -82 80 -87 280 l-3 172 -37 37 c-31 31 -44 37 -90 40 -37 2
-69 -3 -105 -18z"/>
<path d="M1190 5932 c0 -72 -19 -140 -83 -292 -53 -125 -67 -181 -67 -266 0
-125 45 -209 134 -250 28 -13 61 -24 74 -24 35 0 26 -20 -33 -75 -64 -60 -149
-105 -199 -105 -49 0 -47 -22 7 -61 186 -138 415 -124 569 33 81 82 130 191
172 381 l7 28 27 -19 c74 -53 210 -103 340 -126 26 -4 32 -2 32 12 0 41 -58
233 -120 396 -44 115 -139 183 -267 194 -159 12 -250 -68 -313 -276 -12 -40
-26 -74 -31 -77 -14 -9 -88 34 -106 62 -14 21 -18 50 -19 129 -1 56 -5 124 -9
150 -7 53 -65 172 -96 200 -18 17 -19 16 -19 -14z"/>
<path d="M13141 5916 c-61 -88 -74 -138 -77 -284 -2 -127 -3 -134 -29 -168
-28 -37 -92 -72 -104 -57 -4 4 -18 42 -30 83 -41 133 -92 210 -165 247 -52 27
-145 28 -225 4 -79 -24 -132 -64 -161 -121 -57 -111 -159 -445 -142 -462 20
-20 257 53 342 107 22 14 44 25 49 25 5 0 12 -19 16 -42 12 -72 61 -206 97
-264 123 -203 356 -276 559 -174 66 34 132 87 123 101 -3 5 -20 9 -38 9 -18 0
-59 13 -92 30 -67 33 -176 136 -153 144 8 3 32 10 55 16 57 14 128 79 151 138
21 56 23 186 4 247 -7 22 -38 102 -68 178 -40 102 -56 156 -60 208 -3 38 -10
72 -14 75 -4 2 -21 -15 -38 -40z"/>
<path d="M12403 5076 c-56 -22 -103 -46 -103 -53 0 -11 87 -223 95 -231 6 -7
208 72 226 88 17 14 17 17 -4 60 -12 25 -35 75 -51 113 -19 46 -33 67 -45 66
-9 -1 -62 -20 -118 -43z"/>
<path d="M1800 4974 c-28 -64 -48 -120 -44 -124 10 -9 219 -90 233 -90 9 0 92
196 95 223 1 15 -23 28 -109 63 -60 24 -113 44 -116 44 -3 0 -30 -52 -59 -116z"/>
<path d="M2216 4938 c-44 -60 -98 -168 -126 -254 -15 -46 -29 -87 -32 -90 -3
-3 -32 11 -64 32 -135 86 -236 117 -365 112 -76 -3 -105 -8 -151 -30 -142 -66
-248 -224 -248 -370 0 -52 7 -58 34 -29 33 36 116 63 209 69 48 3 87 1 87 -3
0 -4 -12 -32 -26 -62 -54 -109 -27 -221 76 -316 59 -55 110 -83 267 -147 97
-40 197 -101 216 -132 30 -47 36 7 11 93 -23 80 -66 149 -131 210 -73 69 -103
114 -103 154 0 44 19 95 35 95 8 0 44 -16 81 -35 229 -119 389 -70 474 144 25
65 25 106 -1 184 -35 104 -194 407 -213 407 -3 0 -16 -15 -30 -32z"/>
<path d="M12093 4923 c-50 -79 -123 -223 -159 -312 -59 -144 -42 -249 57 -356
65 -71 107 -88 198 -83 65 4 91 12 179 53 115 54 121 53 129 -19 8 -71 -3 -94
-89 -179 -57 -56 -88 -97 -109 -141 -27 -59 -56 -172 -46 -183 3 -2 22 11 44
30 52 46 108 78 234 130 190 79 280 152 319 255 28 74 26 126 -10 196 -17 32
-30 61 -30 64 0 2 42 2 93 -1 97 -5 149 -21 205 -64 18 -14 36 -22 39 -19 13
13 -16 148 -44 209 -17 34 -50 83 -75 109 -91 93 -175 128 -310 128 -108 0
-188 -25 -314 -100 -48 -28 -88 -49 -90 -48 -1 2 -16 46 -33 98 -31 95 -101
229 -139 263 -19 17 -20 17 -49 -30z"/>
<path d="M2604 4252 c-6 -4 -27 -41 -46 -82 -20 -42 -52 -91 -74 -113 -43 -42
-138 -93 -190 -103 -31 -6 -49 -24 -24 -24 24 0 103 -45 145 -82 75 -66 94
-116 115 -302 10 -89 22 -174 26 -191 21 -90 109 -249 168 -304 31 -29 32 -25
9 31 -39 95 -18 231 69 438 60 143 71 186 66 260 -6 77 -53 185 -150 344 -83
136 -90 144 -114 128z"/>
<path d="M11743 4252 c-18 -11 -121 -181 -173 -285 -88 -175 -88 -228 -4 -430
87 -210 110 -340 79 -442 -13 -47 -12 -72 3 -49 4 6 23 30 43 55 38 45 90 142
116 213 8 23 23 115 33 205 11 90 26 185 35 212 22 64 96 139 175 176 33 15
60 31 60 34 0 4 -14 9 -31 13 -56 11 -158 68 -195 109 -20 22 -51 72 -69 112
-32 70 -51 90 -72 77z"/>
<path d="M3045 3655 c23 -102 34 -167 37 -220 l3 -59 -70 -49 c-38 -26 -70
-53 -70 -59 0 -12 17 -18 94 -38 l43 -11 -7 -47 c-3 -26 -17 -89 -31 -140 -13
-52 -24 -95 -24 -97 0 -1 37 8 83 21 110 32 195 42 201 23 3 -8 12 -40 21 -71
8 -32 19 -58 24 -58 4 0 29 34 56 76 l48 77 76 -7 c72 -6 172 -26 216 -42 18
-7 19 -6 5 11 -8 10 -46 45 -85 78 -129 110 -374 356 -505 506 -36 41 -78 88
-93 105 l-29 31 7 -30z"/>
<path d="M11238 3577 c-141 -166 -400 -425 -566 -566 -29 -25 -52 -48 -52 -51
0 -4 32 2 71 12 39 10 106 21 149 24 l78 7 51 -77 c29 -42 56 -74 60 -71 5 2
12 17 15 32 4 16 12 45 17 67 l10 39 57 -6 c31 -4 94 -17 139 -30 46 -13 85
-22 87 -20 2 2 -7 38 -21 81 -13 42 -27 104 -30 138 l-6 62 63 19 c35 10 65
24 67 30 3 7 -28 33 -68 60 l-72 48 6 78 c4 43 14 108 23 143 8 35 14 68 12
74 -1 5 -42 -36 -90 -93z"/>
<path d="M1860 3619 c-42 -18 -160 -130 -160 -151 0 -5 26 -6 59 -2 107 12
120 5 256 -126 125 -122 150 -137 210 -127 53 9 83 35 116 103 53 107 51 246
-2 275 -13 7 -39 6 -81 -1 -77 -14 -150 -6 -228 26 -72 29 -111 30 -170 3z"/>
<path d="M12342 3615 c-84 -32 -144 -39 -220 -25 -35 6 -71 8 -81 5 -68 -21
-58 -238 16 -326 55 -65 134 -78 196 -31 20 15 70 64 112 109 98 106 141 128
236 119 48 -4 69 -3 69 5 0 6 -30 41 -67 78 -97 96 -149 109 -261 66z"/>
<path d="M2367 2878 c-3 -62 -2 -117 3 -121 7 -8 221 -30 226 -24 1 1 4 53 7
115 7 134 15 126 -134 136 l-96 6 -6 -112z"/>
<path d="M11900 2983 c-25 -1 -64 -6 -88 -9 l-43 -5 3 -117 3 -117 80 3 c44 2
97 5 118 8 l37 6 0 72 c0 40 -3 94 -6 120 -7 51 3 47 -104 39z"/>
<path d="M3690 2752 c-41 -16 -90 -36 -108 -46 -18 -9 -73 -30 -123 -46 -106
-35 -233 -41 -296 -15 -20 8 -38 14 -40 12 -8 -9 74 -78 135 -113 106 -63 173
-83 322 -99 157 -17 220 -29 258 -49 48 -25 109 -95 142 -163 l33 -66 25 69
c45 125 96 182 212 235 79 37 92 55 58 83 -49 39 -197 129 -287 174 -86 43
-101 47 -175 50 -69 2 -93 -2 -156 -26z"/>
<path d="M10411 2754 c-68 -26 -73 -28 -249 -137 -140 -85 -142 -94 -31 -148
93 -45 156 -112 193 -204 14 -36 26 -72 26 -80 0 -30 15 -14 39 40 31 72 92
140 152 171 39 19 84 28 217 43 179 21 236 35 322 83 63 35 170 115 170 127 0
5 -17 3 -37 -5 -21 -7 -76 -13 -123 -13 -74 -1 -99 4 -195 38 -60 22 -148 55
-195 75 -108 45 -190 48 -289 10z"/>
<path d="M2902 2513 l-83 -4 6 -107 c4 -59 8 -113 10 -119 5 -15 61 -17 169
-6 l68 6 -7 111 c-4 65 -12 114 -18 118 -7 4 -23 7 -37 6 -14 -1 -62 -4 -108
-5z"/>
<path d="M11317 2504 c-3 -11 -8 -64 -12 -120 l-6 -101 62 -7 c87 -9 167 -8
173 3 3 4 9 58 12 120 l7 111 -55 0 c-30 0 -82 3 -115 6 -54 6 -61 5 -66 -12z"/>
<path d="M4468 2376 c-93 -33 -184 -111 -214 -182 -30 -72 -12 -180 52 -306
19 -37 34 -74 34 -82 0 -20 -73 -39 -117 -31 -24 4 -57 29 -119 92 -67 66
-102 93 -158 118 -106 49 -203 58 -149 14 30 -25 90 -127 123 -211 52 -131
104 -229 148 -278 91 -103 215 -134 316 -77 27 15 53 27 59 27 16 0 2 -179
-18 -225 -9 -22 -28 -55 -42 -73 -14 -18 -23 -36 -19 -39 3 -3 34 -2 69 1 195
21 365 199 375 393 6 116 -31 241 -110 372 -21 34 -38 66 -38 71 0 4 21 13 48
20 106 29 322 143 322 171 0 22 -236 153 -372 205 -94 37 -132 41 -190 20z"/>
<path d="M9773 2379 c-75 -18 -433 -205 -433 -227 0 -12 122 -90 190 -121 36
-16 92 -37 125 -47 33 -10 61 -19 63 -20 1 0 -18 -34 -42 -74 -147 -238 -148
-466 -4 -625 57 -62 134 -109 213 -130 58 -15 135 -20 135 -10 0 3 -11 18 -25
33 -39 42 -64 121 -67 211 -2 44 0 82 4 86 3 4 26 -5 50 -19 95 -55 202 -40
291 42 65 61 106 125 152 242 48 121 97 216 135 259 39 44 38 53 -7 46 -114
-19 -203 -71 -299 -174 -60 -65 -105 -87 -158 -77 -71 13 -72 21 -21 129 51
107 67 183 54 253 -27 144 -209 258 -356 223z"/>
<path d="M3442 2269 c-76 -24 -137 -80 -147 -133 -13 -67 1 -92 121 -212 129
-130 141 -154 129 -262 -6 -52 -4 -63 7 -56 73 43 141 126 159 195 10 40 8 53
-20 138 -32 96 -38 158 -22 239 12 59 5 78 -34 96 -44 21 -116 19 -193 -5z"/>
<path d="M10740 2273 l-35 -18 4 -120 c3 -110 1 -126 -23 -189 -47 -124 -29
-194 75 -291 62 -57 84 -68 75 -37 -34 120 -18 161 113 296 60 61 113 121 120
133 6 12 11 42 11 67 0 37 -6 52 -32 82 -66 75 -232 117 -308 77z"/>
<path d="M5216 2072 c-7 -12 29 -168 54 -232 12 -30 35 -79 51 -108 32 -56 31
-72 -4 -72 -32 0 -163 -43 -230 -75 -78 -37 -176 -129 -210 -199 -74 -150 -58
-332 40 -460 48 -63 63 -68 63 -23 0 47 52 147 112 212 53 58 68 66 68 37 0
-78 74 -174 157 -204 103 -37 211 -18 440 77 82 34 132 48 183 52 38 3 70 10
70 14 0 13 -89 71 -144 92 -39 16 -77 21 -161 22 -60 1 -124 5 -142 9 -50 11
-121 104 -96 126 4 4 41 18 81 31 102 32 181 79 219 127 97 127 43 360 -100
434 -65 33 -212 86 -315 113 -53 15 -104 29 -114 31 -9 3 -19 1 -22 -4z"/>
<path d="M9125 2073 c-70 -14 -227 -62 -325 -101 -144 -58 -189 -97 -219 -197
-23 -75 -27 -155 -9 -206 30 -91 103 -149 249 -197 94 -32 102 -43 69 -97 -35
-57 -66 -67 -209 -69 -108 -1 -133 -4 -176 -24 -57 -26 -145 -83 -145 -94 0
-5 19 -8 43 -8 62 0 152 -24 237 -63 225 -102 373 -113 481 -35 42 30 89 112
89 155 0 40 17 33 75 -29 66 -71 105 -146 105 -200 0 -21 4 -38 9 -38 18 0 84
84 109 139 34 75 42 220 17 306 -30 105 -102 193 -207 253 -61 35 -223 92
-261 92 -14 0 -28 3 -31 8 -2 4 17 51 44 104 49 99 101 282 84 297 -5 4 -18 6
-29 4z"/>
<path d="M9303 1973 c-4 -10 -23 -61 -44 -113 -20 -52 -35 -99 -32 -103 5 -8
43 -27 167 -81 33 -15 63 -23 67 -19 6 7 68 170 84 221 5 16 2 24 -12 28 -10
4 -58 24 -107 45 -100 44 -114 46 -123 22z"/>
<path d="M5040 1965 c-14 -8 -60 -28 -103 -46 -75 -31 -79 -33 -73 -59 11 -56
79 -220 91 -220 18 0 225 99 225 108 0 4 -19 58 -42 119 -45 118 -51 125 -98
98z"/>
<path d="M5974 1825 c-4 -8 6 -47 20 -86 42 -114 30 -252 -29 -343 -10 -15
-15 -29 -12 -32 3 -3 31 3 62 15 79 30 183 29 251 -3 28 -13 95 -61 149 -106
123 -105 189 -145 290 -175 78 -24 215 -44 215 -32 0 4 -21 18 -47 31 -91 47
-157 134 -232 311 -90 214 -110 248 -171 290 -53 37 -173 81 -317 115 -138 34
-171 37 -179 15z"/>
<path d="M8235 1814 c-106 -24 -241 -67 -288 -91 -80 -40 -131 -113 -197 -278
-81 -203 -155 -305 -257 -356 -24 -11 -43 -23 -43 -26 0 -14 152 10 234 38
103 34 154 65 279 171 116 99 162 122 257 126 58 3 89 -1 134 -17 33 -11 62
-19 65 -16 2 3 -5 22 -16 43 -57 101 -66 209 -28 317 35 98 34 115 -7 114 -18
-1 -78 -12 -133 -25z"/>
<path d="M6733 1696 c58 -35 121 -81 167 -123 l24 -22 -15 -91 c-18 -105 -16
-108 63 -60 26 17 52 30 56 30 11 0 83 -103 118 -170 17 -34 34 -63 36 -66 3
-2 28 35 56 83 28 49 64 103 80 122 l28 34 62 -36 c34 -20 64 -32 67 -26 4 5
-1 46 -10 90 l-17 81 32 33 c33 34 107 89 175 131 l40 24 -195 -7 c-249 -10
-398 -10 -635 0 l-190 8 58 -35z"/>
<path d="M6213 1133 c-57 -77 -124 -134 -198 -169 -82 -39 -116 -75 -134 -139
-17 -62 -12 -206 8 -204 3 0 23 23 44 50 60 78 91 89 276 89 136 0 157 2 186
20 44 27 69 89 60 149 -17 111 -124 241 -199 241 -8 0 -28 -17 -43 -37z"/>
<path d="M8075 1161 c-34 -14 -105 -99 -132 -158 -21 -45 -24 -66 -21 -114 4
-51 9 -65 36 -92 l32 -32 178 -5 c202 -6 215 -10 281 -96 18 -24 37 -41 42
-38 5 3 9 47 9 97 -1 144 -28 188 -153 248 -69 32 -147 101 -173 151 -22 43
-56 56 -99 39z"/>
<path d="M6780 844 c-41 -36 -76 -71 -78 -78 -2 -8 31 -50 74 -95 l76 -81 37
30 c20 16 61 51 91 79 l55 50 -80 80 c-44 45 -84 81 -90 81 -5 -1 -44 -30 -85
-66z"/>
<path d="M7421 833 c-39 -43 -71 -81 -71 -84 0 -14 155 -149 171 -149 14 0
130 120 152 156 5 8 -20 36 -75 83 -46 39 -88 71 -94 71 -7 0 -44 -35 -83 -77z"/>
</g>
</svg>
